<svg xmlns="http://www.w3.org/2000/svg" viewBox="0 0 100 100" width="32" height="32">
  <defs>
    <linearGradient id="rocketGradient" x1="0%" y1="0%" x2="100%" y2="100%">
      <stop offset="0%" style="stop-color:#6366f1;stop-opacity:1" />
      <stop offset="100%" style="stop-color:#8b5cf6;stop-opacity:1" />
    </linearGradient>
    <linearGradient id="flameGradient" x1="0%" y1="0%" x2="0%" y2="100%">
      <stop offset="0%" style="stop-color:#f59e0b;stop-opacity:1" />
      <stop offset="50%" style="stop-color:#ef4444;stop-opacity:1" />
      <stop offset="100%" style="stop-color:#dc2626;stop-opacity:1" />
    </linearGradient>
  </defs>
  
  <!-- Rocket body -->
  <ellipse cx="50" cy="45" rx="12" ry="25" fill="url(#rocketGradient)" stroke="#4f46e5" stroke-width="1"/>
  
  <!-- Rocket nose -->
  <path d="M 38 20 L 50 10 L 62 20 Z" fill="#4f46e5"/>
  
  <!-- Rocket fins -->
  <path d="M 38 60 L 32 75 L 38 70 Z" fill="#4f46e5"/>
  <path d="M 62 60 L 68 75 L 62 70 Z" fill="#4f46e5"/>
  
  <!-- Window -->
  <circle cx="50" cy="35" r="4" fill="#e0e7ff" stroke="#4f46e5" stroke-width="1"/>
  
  <!-- Flame -->
  <path d="M 42 70 Q 50 85 58 70 Q 54 80 50 85 Q 46 80 42 70" fill="url(#flameGradient)"/>
  
  <!-- Stars -->
  <circle cx="20" cy="25" r="1" fill="#fbbf24"/>
  <circle cx="80" cy="35" r="1" fill="#fbbf24"/>
  <circle cx="25" cy="60" r="1" fill="#fbbf24"/>
  <circle cx="75" cy="20" r="1" fill="#fbbf24"/>
</svg>
